<?xml version="1.0" encoding="utf-8"?>
<!-- Generator: Adobe Illustrator 16.0.0, SVG Export Plug-In . SVG Version: 6.00 Build 0)  -->
<!DOCTYPE svg PUBLIC "-//W3C//DTD SVG 1.1//EN" "http://www.w3.org/Graphics/SVG/1.1/DTD/svg11.dtd">
<svg version="1.1" id="Layer_1" xmlns="http://www.w3.org/2000/svg" xmlns:xlink="http://www.w3.org/1999/xlink" x="0px" y="0px"
	 width="1417.32px" height="1417.32px" viewBox="0 0 1417.32 1417.32" enable-background="new 0 0 1417.32 1417.32"
	 xml:space="preserve">
<path fill-rule="evenodd" clip-rule="evenodd" fill="none" stroke="black" stroke-width="51.3914" stroke-miterlimit="10" d="
	M1301.066,708.333c0,327.186-265.222,592.407-592.407,592.407c-327.185,0-592.406-265.222-592.406-592.407
	c0-327.168,265.221-592.406,592.406-592.406C1035.845,115.927,1301.066,381.165,1301.066,708.333z"/>
<path fill-rule="evenodd" clip-rule="evenodd" fill="black" d="M1122.067,731.748c-16.08,105.021-76.449,174.11-184.689,204.82
	c-31.08,8.81-62.96,13.66-96.48,18.7c32.13,31.26,40.3,68.93,40.38,109.13c0.101,52.5,0.011,105.01,0.051,157.51
	c0,0.3,0,64.679,0.01,64.969h-308.21c0.8-31.72,0.08-127.639,0.08-160.419c-17.77,4.05-34.8,5.9-51.91,6.811
	c-71.34,3.83-138.48-23.69-165.66-93.601c-12.94-33.29-34.96-61.05-68.17-79.63c-5.53-3.09-10.51-7.399-14.92-11.88
	c-10.23-10.39-8.07-17.02,6.24-20.26c7.74-1.75,15.47-2.3,23.53-1.11c39.86,5.92,68.25,27.8,87.93,59.391
	c41.54,66.71,107.06,76.76,176.32,52.29c4.47-1.58,8.23-3.421,9.16-8.721c4.91-27.83,16.32-52.88,38.05-74.59
	c-31.5-4.439-61.26-8.8-90.25-16.72c-71.89-19.63-130.22-55.79-164.23-121.271c-18.74-36.09-26.89-74.779-30.7-114.53
	c-6.78-70.68,5.81-136.2,56.31-191.7c4.23-4.65,4.69-8.65,2.84-14.32c-13.07-39.96-11.25-79.97,0.55-119.85
	c9.65-32.57,12.12-33.83,47.11-26.97c45.45,8.92,85.23,29.68,123.86,52.84c6.04,3.62,11.26,5.97,19.18,3.91
	c99.26-25.76,198.68-25.65,298-0.18c7.48,1.91,13.091,0.68,19.32-3.27c27.11-17.19,55.61-32.04,86.16-43.04
	c20.96-7.55,42.38-13.32,65.22-12.55c6.181,0.22,10.05,1.84,12.32,7.96c16.88,45.58,22.55,91.8,8.14,138.84
	c-2.43,7.92-1.359,12.85,3.99,18.86c26.271,29.57,43.2,63.42,50.91,101.44C1130.447,653.718,1128.038,692.718,1122.067,731.748z"/>
</svg>
