<?xml version="1.0" encoding="iso-8859-1"?>
<!-- Generator: Adobe Illustrator 16.0.0, SVG Export Plug-In . SVG Version: 6.00 Build 0)  -->
<!DOCTYPE svg PUBLIC "-//W3C//DTD SVG 1.1//EN" "http://www.w3.org/Graphics/SVG/1.1/DTD/svg11.dtd">
<svg version="1.1" id="Capa_1" xmlns="http://www.w3.org/2000/svg" xmlns:xlink="http://www.w3.org/1999/xlink" x="0px" y="0px"
	 width="35px" height="35px" viewBox="0 0 35 35" style="enable-background:new 0 0 35 35;" xml:space="preserve">
<g>
	<g>
		<path d="M25.302,0H9.698c-1.3,0-2.364,1.063-2.364,2.364v30.271C7.334,33.936,8.398,35,9.698,35h15.604
			c1.3,0,2.364-1.062,2.364-2.364V2.364C27.666,1.063,26.602,0,25.302,0z M14.027,33.296h-1.996c-0.366,0-0.665-0.298-0.665-0.665
			s0.299-0.666,0.665-0.666h1.996c0.365,0,0.664,0.299,0.664,0.666S14.395,33.296,14.027,33.296z M17.5,33.818
			c-0.652,0-1.182-0.529-1.182-1.183s0.529-1.182,1.182-1.182s1.182,0.528,1.182,1.182S18.152,33.818,17.5,33.818z M22.969,33.296
			h-1.994c-0.367,0-0.666-0.298-0.666-0.665s0.299-0.666,0.666-0.666h1.994c0.367,0,0.665,0.299,0.665,0.666
			S23.336,33.296,22.969,33.296z M26.021,30.625H8.979V1.544h17.042V30.625z"/>
		<g>
			<g>
				<path d="M23.629,14.77l-0.886,0.885c-2.892-2.891-7.595-2.891-10.487,0l-0.885-0.885C14.75,11.391,20.25,11.39,23.629,14.77z"/>
			</g>
			<g>
				<path d="M22.1,16.3l-0.887,0.886c-2.047-2.047-5.379-2.047-7.426,0L12.9,16.3C15.438,13.765,19.562,13.765,22.1,16.3z"/>
			</g>
			<g>
				<path d="M20.52,17.879l-0.885,0.885c-1.178-1.177-3.092-1.177-4.27,0l-0.885-0.885C16.146,16.214,18.854,16.214,20.52,17.879z"
					/>
			</g>
		</g>
	</g>
</g>
<g>
</g>
<g>
</g>
<g>
</g>
<g>
</g>
<g>
</g>
<g>
</g>
<g>
</g>
<g>
</g>
<g>
</g>
<g>
</g>
<g>
</g>
<g>
</g>
<g>
</g>
<g>
</g>
<g>
</g>
</svg>
