<?xml version="1.0" ?><svg id="Layer_1" style="enable-background:new 0 0 515 515;" version="1.1" viewBox="0 0 515 515" xml:space="preserve" xmlns="http://www.w3.org/2000/svg" xmlns:xlink="http://www.w3.org/1999/xlink"><title/><g id="Layer_2"><g id="Layer_1-2"><path d="M257.5,465.8c115.2,0.1,208.6-93.1,208.8-208.3S373.1,48.9,258,48.7S49.3,141.9,49.2,257c-0.1,55.4,21.9,108.5,61.1,147.7    C149.3,443.9,202.3,465.8,257.5,465.8z M257.5,70.1c103.6-0.1,187.7,83.9,187.8,187.5c0.1,103.6-83.9,187.7-187.5,187.8    C154.2,445.4,70.1,361.5,70,257.9c0-49.8,19.7-97.6,55-132.9C160.1,89.8,207.8,70,257.5,70.1L257.5,70.1z"/><path d="M257.5,353.8c53.3,0,96.5-43.2,96.5-96.5s-43.2-96.5-96.5-96.5S161.1,204,161,257.3c0,25.6,10.2,50.2,28.3,68.3    C207.4,343.7,231.9,353.8,257.5,353.8z M222.7,191.3c4.4,6.1,14.5,20.8,24.5,38c-20.3,4.9-41.1,7.6-61.9,8.2    C190.9,217.6,204.4,200.9,222.7,191.3z M304.4,316c-3.2-15.6-7.4-31-12.7-46c3.7-0.4,7.4-0.6,11.1-0.6c9.5,0,19,1.2,28.2,3.6    C327.3,290,317.9,305.2,304.4,316L304.4,316z M257.7,248.7c1,2.1,2,4.1,3,6.2c-19.7,6.6-35,18.3-45.8,29    c-6.1,6.1-11.6,12.7-16.5,19.7c-10-12.7-15.6-28.3-15.9-44.5C193.7,259.1,224.8,258,257.7,248.7L257.7,248.7z M261.8,254.5    L261.8,254.5z M227.6,301.8c8.9-9,22.3-19.1,41.6-26.3c6.3,17,11.3,34.5,14.7,52.3c-23.3,8.8-49.4,5.4-69.7-9    C217.9,312.6,222.4,306.9,227.6,301.8L227.6,301.8z M299.7,249.3c-5.2,0-10.5,0.3-15.7,0.8l-0.6-1.4l0,0c-1.1-2.6-2.3-5.3-3.5-7.9    c20.8-9.2,33.1-20.6,38.6-26.8c8,11.1,12.8,24.3,13.8,38C321.5,250.2,310.6,249.3,299.7,249.3L299.7,249.3z M295.9,207.3    c-7.8,6.2-16.4,11.2-25.6,14.9c-7.5-13.3-15.6-26.1-24.4-38.5c20.8-3.3,42.1,2.4,58.5,15.5C301.8,202.1,298.9,204.8,295.9,207.3    L295.9,207.3z"/></g></g></svg>